# xmcd
#
# Track frame offsets:
#	150
#	17044
#	33021
#	50126
#	77831
#	95995
#	108187
#	130463
#	149106
#	167411
#	195210
#
# Disc length: 2908 seconds
#
# Revision: 2
# Processed by: cddbd v1.5.1PL2 Copyright (c) Steve Scherf et al.
# Submitted via: audiograbber 1.83.01
#
DISCID=930b5a0b
DTITLE=Various Artist - ASK-812 Country Vol. 6
DYEAR=2006
DGENRE=Country
TTITLE0=Blake Shelton - When Somebody Knows You That Well
TTITLE1=Carolyn Dawn Johnson - Die Of A Broken Heart
TTITLE2=Dierks Bentley - Lot Of Leavin' Left To Do
TTITLE3=Dixie Chicks, The - Top Of The World
TTITLE4=Joe Nichols - If Nobody Believed In You
TTITLE5=Josh Gracin - Nothin' To Lose
TTITLE6=Keith Urban - You'll Think Of Me
TTITLE7=Keith Urban - Making Memories Of Us
TTITLE8=Kenny Chesney - Woman With You, The
TTITLE9=LeAnn Rimes - Probably Won't Be This Way
TTITLE10=Data Track - Data Track
EXTD=
EXTT0=
EXTT1=
EXTT2=
EXTT3=
EXTT4=
EXTT5=
EXTT6=
EXTT7=
EXTT8=
EXTT9=
EXTT10=
PLAYORDER=
